<?xml version="1.0"?>
<svg xmlns="http://www.w3.org/2000/svg" width="512" height="512" viewBox="0 0 128 128"><g><path d="M123.681,21.191a16.994,16.994,0,0,0-11.308-5.564,16.992,16.992,0,0,0-5.564-11.308A17.123,17.123,0,0,0,84,4.39,16.918,16.918,0,0,0,79.121,21.7a12.1,12.1,0,0,1-2.853,11.96L33.656,76.268A12.094,12.094,0,0,1,21.7,79.121,16.916,16.916,0,0,0,4.39,84a17.121,17.121,0,0,0-.071,22.808,16.985,16.985,0,0,0,11.308,5.564A16.989,16.989,0,1,0,48.879,106.3a12.1,12.1,0,0,1,2.853-11.96L94.344,51.732a12.1,12.1,0,0,1,11.961-2.853A16.914,16.914,0,0,0,123.61,44,17.123,17.123,0,0,0,123.681,21.191Zm-2.657,20.45a13.441,13.441,0,0,1-13.747,3.876,15.6,15.6,0,0,0-15.408,3.741L49.258,91.87a15.591,15.591,0,0,0-3.741,15.408,13.437,13.437,0,0,1-3.877,13.747,13.481,13.481,0,0,1-22.56-10.312,1.752,1.752,0,0,0-1.75-1.793h-.043a13.443,13.443,0,0,1-10.368-4.455A13.591,13.591,0,0,1,6.975,86.36a13.436,13.436,0,0,1,13.747-3.877A15.588,15.588,0,0,0,36.13,78.742L78.742,36.13a15.59,15.59,0,0,0,3.74-15.408A13.441,13.441,0,0,1,86.359,6.975a13.483,13.483,0,0,1,22.562,10.312,1.746,1.746,0,0,0,.512,1.28,1.764,1.764,0,0,0,1.28.513,13.481,13.481,0,0,1,10.311,22.561Z"/><path d="M113.63,27.9a1.75,1.75,0,0,0-.128,2.472,3.384,3.384,0,0,1-.013,4.393,3.33,3.33,0,0,1-3.373.955,1.75,1.75,0,0,0-.972,3.362,6.9,6.9,0,0,0,1.907.265,6.7,6.7,0,0,0,5.023-2.222,6.917,6.917,0,0,0,.028-9.1A1.751,1.751,0,0,0,113.63,27.9Z"/></g></svg>
