<svg id="Capa_1" enable-background="new 0 0 511.974 511.974" height="512" viewBox="0 0 511.974 511.974" width="512" xmlns="http://www.w3.org/2000/svg"><g><path d="m229.368 9.889c-8.347-9.11-21.244-12.266-32.855-8.04l-105.923 38.553c-23.095 8.406-35.412 35.277-26.895 58.677.862 2.371-1.604-2.429 51.668 88.824 1.388 2.373 3.344 4.239 5.609 5.508v85.476c-19.435 23.362-30 53.741-30 89.688 0 51.505 42.472 95.608 78.102 123.537 4.851 3.802 11.533 4.25 16.846 1.131 5.315-3.119 8.181-9.171 7.227-15.259l-.96-6.126c18.922 15.3 38.931 28.912 56.756 38.367 2.198 1.166 4.613 1.749 7.029 1.749s4.831-.583 7.029-1.749c17.826-9.455 37.834-23.067 56.757-38.368l-.96 6.127c-.955 6.088 1.912 12.14 7.227 15.259 5.313 3.119 11.996 2.671 16.846-1.131 35.629-27.928 78.102-72.031 78.102-123.537 0-35.948-10.565-66.326-30-89.688v-85.476c2.265-1.269 4.222-3.135 5.609-5.508 53.197-91.123 50.794-86.421 51.668-88.824 8.503-23.359-3.491-50.159-26.895-58.677l-105.922-38.552c-11.609-4.226-24.508-1.071-32.855 8.039-5.545 6.051-8.291 13.873-7.985 21.725-6.09-1.087-12.304-1.639-18.62-1.639s-12.531.553-18.62 1.64c.306-7.853-2.44-15.675-7.985-21.726zm-137.828 77.859c-2.179-7.734 1.971-16.482 9.309-19.154-.002 0-.001 0 0 0 0 0 .001 0 .001-.001.066-.024.098-.036.113-.041-.02.007-.063.023-.091.033.511-.186 9.635-3.505 106.128-38.615.142.041.385.307.412.423-.019.207-.547 1.042-1.002 2.782-12.725 48.523-32.285 105.487-71.995 127.88zm263.464 352.981.899-5.737c1.005-6.412-2.228-12.744-8.012-15.689-5.783-2.944-12.806-1.837-17.401 2.748-21.799 21.748-50.279 43.759-74.517 57.772-24.238-14.013-52.717-36.024-74.517-57.772-2.88-2.874-6.714-4.382-10.599-4.382-2.313 0-4.644.535-6.803 1.634-5.784 2.945-9.017 9.277-8.012 15.689l.899 5.736c-18.846-20.038-35.969-45.562-35.969-72.153 0-77.679 57.078-112.602 135-112.602 77.559 0 135 34.369 135 112.602.001 26.591-17.122 52.116-35.968 72.154zm-50.087-410.755c.17.002-3.989-1.458 106.178 38.619 7.458 2.714 11.418 11.605 9.307 19.16l-42.872 73.303c-46.252-26.082-62.629-96.918-72.998-130.634.028-.145.271-.411.385-.448zm-48.944 30c9.517 0 18.704 1.732 27.393 5.153 14.403 47.412 36.612 96.893 77.607 121.019v66.532c-27.192-17.289-62.773-26.703-105-26.703s-77.808 9.414-105 26.703v-66.532c40.995-24.125 63.203-73.606 77.607-121.018 8.689-3.422 17.876-5.154 27.393-5.154z"/><path d="m100.849 68.594c.003-.001.012-.004.023-.008-.014.005-.02.007-.023.008z"/><circle cx="195.973" cy="195.974" r="15"/><circle cx="315.973" cy="195.974" r="15"/><path d="m309.329 359.871c-11.411 2.991-21.389-.406-28.273-6.555 12.005-8.09 19.917-21.809 19.917-37.342 0-8.942-2.681-16.137-7.969-21.384-8.895-8.826-21.237-8.678-33.181-8.586-2.52.02-5.181.02-7.7 0-11.937-.094-24.286-.239-33.181 8.586-5.288 5.247-7.969 12.441-7.969 21.384 0 15.533 7.912 29.252 19.916 37.342-6.884 6.149-16.863 9.546-28.272 6.555-8.014-2.1-16.213 2.694-18.313 10.708s2.694 16.212 10.708 18.313c22.987 6.024 46.241-1.45 60.961-18.146 14.741 16.721 38.004 24.162 60.962 18.146 8.014-2.1 12.808-10.299 10.708-18.313-2.102-8.014-10.301-12.809-18.314-10.708zm-53.356-28.897c-8.185 0-14.86-6.59-14.998-14.743 2.83-.341 7.539-.304 10.914-.278 2.673.021 5.496.021 8.169 0 3.375-.027 8.083-.063 10.914.278-.139 8.153-6.814 14.743-14.999 14.743z"/></g></svg>